<?xml version="1.0" encoding="UTF-8" standalone="no"?><svg xmlns="http://www.w3.org/2000/svg" xmlns:xlink="http://www.w3.org/1999/xlink" contentScriptType="application/ecmascript" contentStyleType="text/css" height="4328.125px" preserveAspectRatio="none" style="width:4631px;height:4328px;" version="1.1" viewBox="0 0 4631 4328" width="4631.25px" zoomAndPan="magnify"><defs/><g><!--cluster Deployment diagram--><rect fill="#FFFFFF" height="4218.75" style="stroke: #000000; stroke-width: 4.6875;" width="4554.6875" x="43.75" y="75"/><path d="M553.125,78.125 L553.125,139.4043 L521.875,170.6543 L43.75,170.6543 " fill="none" style="stroke: #000000; stroke-width: 4.6875;"/><text fill="#000000" font-family="sans-serif" font-size="43.75" font-weight="bold" lengthAdjust="spacingAndGlyphs" textLength="446.875" x="68.75" y="139.1663">Deployment diagram</text><!--cluster PC--><polygon fill="#FFFFFF" points="1848.4375,2156.25,1879.6875,2125,4498.4375,2125,4498.4375,3518.75,4467.1875,3550,1848.4375,3550,1848.4375,2156.25" style="stroke: #000000; stroke-width: 4.6875;"/><line style="stroke: #000000; stroke-width: 4.6875;" x1="4467.1875" x2="4495.3125" y1="2156.25" y2="2128.125"/><line style="stroke: #000000; stroke-width: 4.6875;" x1="1848.4375" x2="4467.1875" y1="2156.25" y2="2156.25"/><line style="stroke: #000000; stroke-width: 4.6875;" x1="4467.1875" x2="4467.1875" y1="2156.25" y2="3550"/><text fill="#000000" font-family="sans-serif" font-size="43.75" font-style="italic" lengthAdjust="spacingAndGlyphs" textLength="175" x="3073.4375" y="2226.6663">«device»</text><text fill="#000000" font-family="sans-serif" font-size="43.75" font-weight="bold" lengthAdjust="spacingAndGlyphs" textLength="59.375" x="3131.25" y="2312.9456">PC</text><!--cluster desktopApp--><polygon fill="#FFFFFF" points="1973.4375,2543.75,2004.6875,2512.5,2532.8125,2512.5,2532.8125,3131.25,2501.5625,3162.5,1973.4375,3162.5,1973.4375,2543.75" style="stroke: #000000; stroke-width: 4.6875;"/><line style="stroke: #000000; stroke-width: 4.6875;" x1="2501.5625" x2="2529.6875" y1="2543.75" y2="2515.625"/><line style="stroke: #000000; stroke-width: 4.6875;" x1="1973.4375" x2="2501.5625" y1="2543.75" y2="2543.75"/><line style="stroke: #000000; stroke-width: 4.6875;" x1="2501.5625" x2="2501.5625" y1="2543.75" y2="3162.5"/><text fill="#000000" font-family="sans-serif" font-size="43.75" font-style="italic" lengthAdjust="spacingAndGlyphs" textLength="262.5" x="2109.375" y="2614.1663">«application»</text><text fill="#000000" font-family="sans-serif" font-size="43.75" font-weight="bold" lengthAdjust="spacingAndGlyphs" textLength="278.125" x="2101.5625" y="2700.4456">Desktop App</text><!--cluster server--><polygon fill="#FFFFFF" points="2932.8125,2681.25,2964.0625,2650,3489.0625,2650,3489.0625,3268.75,3457.8125,3300,2932.8125,3300,2932.8125,2681.25" style="stroke: #000000; stroke-width: 4.6875;"/><line style="stroke: #000000; stroke-width: 4.6875;" x1="3457.8125" x2="3485.9375" y1="2681.25" y2="2653.125"/><line style="stroke: #000000; stroke-width: 4.6875;" x1="2932.8125" x2="3457.8125" y1="2681.25" y2="2681.25"/><line style="stroke: #000000; stroke-width: 4.6875;" x1="3457.8125" x2="3457.8125" y1="2681.25" y2="3300"/><text fill="#000000" font-family="sans-serif" font-size="43.75" font-style="italic" lengthAdjust="spacingAndGlyphs" textLength="171.875" x="3112.5" y="2751.6663">«server»</text><text fill="#000000" font-family="sans-serif" font-size="43.75" font-weight="bold" lengthAdjust="spacingAndGlyphs" textLength="150" x="3123.4375" y="2837.9456">Server</text><!--cluster DB--><path d="M3842.1875,2478.125 C3842.1875,2446.875 4107.8125,2446.875 4107.8125,2446.875 C4107.8125,2446.875 4373.4375,2446.875 4373.4375,2478.125 L4373.4375,3368.75 C4373.4375,3400 4107.8125,3400 4107.8125,3400 C4107.8125,3400 3842.1875,3400 3842.1875,3368.75 L3842.1875,2478.125 " fill="#FFFFFF" style="stroke: #000000; stroke-width: 4.6875;"/><path d="M3842.1875,2478.125 C3842.1875,2509.375 4107.8125,2509.375 4107.8125,2509.375 C4107.8125,2509.375 4373.4375,2509.375 4373.4375,2478.125 " fill="none" style="stroke: #000000; stroke-width: 4.6875;"/><text fill="#000000" font-family="sans-serif" font-size="43.75" font-style="italic" lengthAdjust="spacingAndGlyphs" textLength="234.375" x="3990.625" y="2576.6663">«database»</text><text fill="#000000" font-family="sans-serif" font-size="43.75" font-weight="bold" lengthAdjust="spacingAndGlyphs" textLength="450" x="3882.8125" y="2662.9456">High score database</text><line style="stroke: #000000; stroke-width: 3.125;" x1="3867.1875" x2="4348.4375" y1="2688.1836" y2="2688.1836"/><!--cluster UserKit--><polygon fill="#FFFFFF" points="162.5,300,193.75,268.75,1243.75,268.75,1243.75,1815.625,1212.5,1846.875,162.5,1846.875,162.5,300" style="stroke: #000000; stroke-width: 4.6875;"/><line style="stroke: #000000; stroke-width: 4.6875;" x1="1212.5" x2="1240.625" y1="300" y2="271.875"/><line style="stroke: #000000; stroke-width: 4.6875;" x1="162.5" x2="1212.5" y1="300" y2="300"/><line style="stroke: #000000; stroke-width: 4.6875;" x1="1212.5" x2="1212.5" y1="300" y2="1846.875"/><text fill="#000000" font-family="sans-serif" font-size="43.75" font-style="italic" lengthAdjust="spacingAndGlyphs" textLength="175" x="603.125" y="370.4163">«device»</text><text fill="#000000" font-family="sans-serif" font-size="43.75" font-weight="bold" lengthAdjust="spacingAndGlyphs" textLength="162.5" x="609.375" y="456.6956">UserKit</text><!--cluster userKitCtrl--><polygon fill="#FFFFFF" points="378.125,596.875,409.375,565.625,1031.25,565.625,1031.25,1075,1000,1106.25,378.125,1106.25,378.125,596.875" style="stroke: #000000; stroke-width: 4.6875;"/><line style="stroke: #000000; stroke-width: 4.6875;" x1="1000" x2="1028.125" y1="596.875" y2="568.75"/><line style="stroke: #000000; stroke-width: 4.6875;" x1="378.125" x2="1000" y1="596.875" y2="596.875"/><line style="stroke: #000000; stroke-width: 4.6875;" x1="1000" x2="1000" y1="596.875" y2="1106.25"/><text fill="#000000" font-family="sans-serif" font-size="43.75" font-style="italic" lengthAdjust="spacingAndGlyphs" textLength="175" x="604.6875" y="667.2913">«device»</text><text fill="#000000" font-family="sans-serif" font-size="43.75" font-weight="bold" lengthAdjust="spacingAndGlyphs" textLength="384.375" x="500" y="753.5706">UserKitController</text><!--cluster UsrComUnit--><polygon fill="#FFFFFF" points="262.5,1212.5,293.75,1181.25,1143.75,1181.25,1143.75,1690.625,1112.5,1721.875,262.5,1721.875,262.5,1212.5" style="stroke: #000000; stroke-width: 4.6875;"/><line style="stroke: #000000; stroke-width: 4.6875;" x1="1112.5" x2="1140.625" y1="1212.5" y2="1184.375"/><line style="stroke: #000000; stroke-width: 4.6875;" x1="262.5" x2="1112.5" y1="1212.5" y2="1212.5"/><line style="stroke: #000000; stroke-width: 4.6875;" x1="1112.5" x2="1112.5" y1="1212.5" y2="1721.875"/><text fill="#000000" font-family="sans-serif" font-size="43.75" font-style="italic" lengthAdjust="spacingAndGlyphs" textLength="175" x="603.125" y="1282.9163">«device»</text><text fill="#000000" font-family="sans-serif" font-size="43.75" font-weight="bold" lengthAdjust="spacingAndGlyphs" textLength="612.5" x="384.375" y="1369.1956">UserKit Communication Unit</text><!--cluster TargetKit--><polygon fill="#FFFFFF" points="143.75,2003.125,175,1971.875,1262.5,1971.875,1262.5,3518.75,1231.25,3550,143.75,3550,143.75,2003.125" style="stroke: #000000; stroke-width: 4.6875;"/><line style="stroke: #000000; stroke-width: 4.6875;" x1="1231.25" x2="1259.375" y1="2003.125" y2="1975"/><line style="stroke: #000000; stroke-width: 4.6875;" x1="143.75" x2="1231.25" y1="2003.125" y2="2003.125"/><line style="stroke: #000000; stroke-width: 4.6875;" x1="1231.25" x2="1231.25" y1="2003.125" y2="3550"/><text fill="#000000" font-family="sans-serif" font-size="43.75" font-style="italic" lengthAdjust="spacingAndGlyphs" textLength="175" x="603.125" y="2073.5413">«device»</text><text fill="#000000" font-family="sans-serif" font-size="43.75" font-weight="bold" lengthAdjust="spacingAndGlyphs" textLength="200" x="590.625" y="2159.8206">TargetKit</text><!--cluster targetKitCtrl--><polygon fill="#FFFFFF" points="359.375,2300,390.625,2268.75,1050,2268.75,1050,2778.125,1018.75,2809.375,359.375,2809.375,359.375,2300" style="stroke: #000000; stroke-width: 4.6875;"/><line style="stroke: #000000; stroke-width: 4.6875;" x1="1018.75" x2="1046.875" y1="2300" y2="2271.875"/><line style="stroke: #000000; stroke-width: 4.6875;" x1="359.375" x2="1018.75" y1="2300" y2="2300"/><line style="stroke: #000000; stroke-width: 4.6875;" x1="1018.75" x2="1018.75" y1="2300" y2="2809.375"/><text fill="#000000" font-family="sans-serif" font-size="43.75" font-style="italic" lengthAdjust="spacingAndGlyphs" textLength="175" x="604.6875" y="2370.4163">«device»</text><text fill="#000000" font-family="sans-serif" font-size="43.75" font-weight="bold" lengthAdjust="spacingAndGlyphs" textLength="421.875" x="481.25" y="2456.6956">TargetKitController</text><!--cluster TrgtComUnit--><polygon fill="#FFFFFF" points="243.75,2915.625,275,2884.375,1162.5,2884.375,1162.5,3393.75,1131.25,3425,243.75,3425,243.75,2915.625" style="stroke: #000000; stroke-width: 4.6875;"/><line style="stroke: #000000; stroke-width: 4.6875;" x1="1131.25" x2="1159.375" y1="2915.625" y2="2887.5"/><line style="stroke: #000000; stroke-width: 4.6875;" x1="243.75" x2="1131.25" y1="2915.625" y2="2915.625"/><line style="stroke: #000000; stroke-width: 4.6875;" x1="1131.25" x2="1131.25" y1="2915.625" y2="3425"/><text fill="#000000" font-family="sans-serif" font-size="43.75" font-style="italic" lengthAdjust="spacingAndGlyphs" textLength="175" x="603.125" y="2986.0413">«device»</text><text fill="#000000" font-family="sans-serif" font-size="43.75" font-weight="bold" lengthAdjust="spacingAndGlyphs" textLength="650" x="365.625" y="3072.3206">TargetKit Communication Unit</text><!--cluster scoreboard--><polygon fill="#FFFFFF" points="239.0625,3706.25,270.3125,3675,1167.1875,3675,1167.1875,4162.5,1135.9375,4193.75,239.0625,4193.75,239.0625,3706.25" style="stroke: #000000; stroke-width: 4.6875;"/><line style="stroke: #000000; stroke-width: 4.6875;" x1="1135.9375" x2="1164.0625" y1="3706.25" y2="3678.125"/><line style="stroke: #000000; stroke-width: 4.6875;" x1="239.0625" x2="1135.9375" y1="3706.25" y2="3706.25"/><line style="stroke: #000000; stroke-width: 4.6875;" x1="1135.9375" x2="1135.9375" y1="3706.25" y2="4193.75"/><text fill="#000000" font-family="sans-serif" font-size="43.75" font-style="italic" lengthAdjust="spacingAndGlyphs" textLength="175" x="603.125" y="3776.6663">«device»</text><text fill="#000000" font-family="sans-serif" font-size="43.75" font-weight="bold" lengthAdjust="spacingAndGlyphs" textLength="425" x="478.125" y="3862.9456">Scoreboard Display</text><path d="M1998.4375,3248.4375 L1998.4375,3413.1348 L2507.8125,3413.1348 L2507.8125,3279.6875 L2476.5625,3248.4375 L1998.4375,3248.4375 " fill="#ECECEC" style="stroke: #383838; stroke-width: 3.125;"/><path d="M2476.5625,3248.4375 L2476.5625,3279.6875 L2507.8125,3279.6875 L2476.5625,3248.4375 " fill="#ECECEC" style="stroke: #383838; stroke-width: 3.125;"/><text fill="#000000" font-family="sans-serif" font-size="40.625" lengthAdjust="spacingAndGlyphs" textLength="409.375" x="2032.8125" y="3321.8597">This application serves</text><text fill="#000000" font-family="sans-serif" font-size="40.625" lengthAdjust="spacingAndGlyphs" textLength="400" x="2045.3125" y="3372.9584">as the admin interface</text><!--entity frontend--><rect fill="#F8F8F8" height="244.4336" style="stroke: #000000; stroke-width: 4.6875;" width="409.375" x="2048.4375" y="2784.375"/><polygon fill="#F8F8F8" points="2404.6875,2800,2404.6875,2843.75,2442.1875,2843.75,2442.1875,2818.75,2423.4375,2800,2404.6875,2800" style="stroke: #000000; stroke-width: 4.6875;"/><line style="stroke: #000000; stroke-width: 4.6875;" x1="2423.4375" x2="2423.4375" y1="2800" y2="2818.75"/><line style="stroke: #000000; stroke-width: 4.6875;" x1="2442.1875" x2="2423.4375" y1="2818.75" y2="2818.75"/><text fill="#000000" font-family="sans-serif" font-size="43.75" font-style="italic" lengthAdjust="spacingAndGlyphs" textLength="262.5" x="2106.25" y="2886.0413">«executable»</text><text fill="#000000" font-family="sans-serif" font-size="43.75" font-weight="bold" lengthAdjust="spacingAndGlyphs" textLength="284.375" x="2095.3125" y="2972.3206">frontend.exe</text><!--entity backend--><rect fill="#F8F8F8" height="244.4336" style="stroke: #000000; stroke-width: 4.6875;" width="406.25" x="3007.8125" y="2921.875"/><polygon fill="#F8F8F8" points="3360.9375,2937.5,3360.9375,2981.25,3398.4375,2981.25,3398.4375,2956.25,3379.6875,2937.5,3360.9375,2937.5" style="stroke: #000000; stroke-width: 4.6875;"/><line style="stroke: #000000; stroke-width: 4.6875;" x1="3379.6875" x2="3379.6875" y1="2937.5" y2="2956.25"/><line style="stroke: #000000; stroke-width: 4.6875;" x1="3398.4375" x2="3379.6875" y1="2956.25" y2="2956.25"/><text fill="#000000" font-family="sans-serif" font-size="43.75" font-style="italic" lengthAdjust="spacingAndGlyphs" textLength="262.5" x="3064.0625" y="3023.5413">«executable»</text><text fill="#000000" font-family="sans-serif" font-size="43.75" font-weight="bold" lengthAdjust="spacingAndGlyphs" textLength="281.25" x="3054.6875" y="3109.8206">backend.exe</text><!--entity HighScore--><ellipse cx="4106.25" cy="2831.25" fill="#F8F8F8" rx="37.5" ry="37.5" style="stroke: #383838; stroke-width: 6.25;"/><line style="stroke: #383838; stroke-width: 6.25;" x1="4068.75" x2="4143.75" y1="2875" y2="2875"/><text fill="#000000" font-family="sans-serif" font-size="43.75" lengthAdjust="spacingAndGlyphs" textLength="203.125" x="4004.6875" y="2942.2913">HighScore</text><!--entity Users--><ellipse cx="4106.25" cy="3128.125" fill="#F8F8F8" rx="37.5" ry="37.5" style="stroke: #383838; stroke-width: 6.25;"/><line style="stroke: #383838; stroke-width: 6.25;" x1="4068.75" x2="4143.75" y1="3171.875" y2="3171.875"/><text fill="#000000" font-family="sans-serif" font-size="43.75" lengthAdjust="spacingAndGlyphs" textLength="112.5" x="4050" y="3239.1663">Users</text><!--entity userkitApp--><rect fill="#F8F8F8" height="244.4336" style="stroke: #000000; stroke-width: 4.6875;" width="387.5" x="509.375" y="812.5"/><polygon fill="#F8F8F8" points="843.75,828.125,843.75,871.875,881.25,871.875,881.25,846.875,862.5,828.125,843.75,828.125" style="stroke: #000000; stroke-width: 4.6875;"/><line style="stroke: #000000; stroke-width: 4.6875;" x1="862.5" x2="862.5" y1="828.125" y2="846.875"/><line style="stroke: #000000; stroke-width: 4.6875;" x1="881.25" x2="862.5" y1="846.875" y2="846.875"/><text fill="#000000" font-family="sans-serif" font-size="43.75" font-style="italic" lengthAdjust="spacingAndGlyphs" textLength="262.5" x="556.25" y="914.1663">«executable»</text><text fill="#000000" font-family="sans-serif" font-size="43.75" lengthAdjust="spacingAndGlyphs" textLength="209.375" x="582.8125" y="1000.4456">userkitApp</text><!--entity usrComApp--><rect fill="#F8F8F8" height="244.4336" style="stroke: #000000; stroke-width: 4.6875;" width="387.5" x="509.375" y="1428.125"/><polygon fill="#F8F8F8" points="843.75,1443.75,843.75,1487.5,881.25,1487.5,881.25,1462.5,862.5,1443.75,843.75,1443.75" style="stroke: #000000; stroke-width: 4.6875;"/><line style="stroke: #000000; stroke-width: 4.6875;" x1="862.5" x2="862.5" y1="1443.75" y2="1462.5"/><line style="stroke: #000000; stroke-width: 4.6875;" x1="881.25" x2="862.5" y1="1462.5" y2="1462.5"/><text fill="#000000" font-family="sans-serif" font-size="43.75" font-style="italic" lengthAdjust="spacingAndGlyphs" textLength="262.5" x="556.25" y="1529.7913">«executable»</text><text fill="#000000" font-family="sans-serif" font-size="43.75" lengthAdjust="spacingAndGlyphs" textLength="159.375" x="607.8125" y="1616.0706">comApp</text><!--entity targetKitApp--><rect fill="#F8F8F8" height="244.4336" style="stroke: #000000; stroke-width: 4.6875;" width="387.5" x="509.375" y="2515.625"/><polygon fill="#F8F8F8" points="843.75,2531.25,843.75,2575,881.25,2575,881.25,2550,862.5,2531.25,843.75,2531.25" style="stroke: #000000; stroke-width: 4.6875;"/><line style="stroke: #000000; stroke-width: 4.6875;" x1="862.5" x2="862.5" y1="2531.25" y2="2550"/><line style="stroke: #000000; stroke-width: 4.6875;" x1="881.25" x2="862.5" y1="2550" y2="2550"/><text fill="#000000" font-family="sans-serif" font-size="43.75" font-style="italic" lengthAdjust="spacingAndGlyphs" textLength="262.5" x="556.25" y="2617.2913">«executable»</text><text fill="#000000" font-family="sans-serif" font-size="43.75" lengthAdjust="spacingAndGlyphs" textLength="243.75" x="565.625" y="2703.5706">targetKitApp</text><!--entity trgtComApp--><rect fill="#F8F8F8" height="244.4336" style="stroke: #000000; stroke-width: 4.6875;" width="387.5" x="509.375" y="3131.25"/><polygon fill="#F8F8F8" points="843.75,3146.875,843.75,3190.625,881.25,3190.625,881.25,3165.625,862.5,3146.875,843.75,3146.875" style="stroke: #000000; stroke-width: 4.6875;"/><line style="stroke: #000000; stroke-width: 4.6875;" x1="862.5" x2="862.5" y1="3146.875" y2="3165.625"/><line style="stroke: #000000; stroke-width: 4.6875;" x1="881.25" x2="862.5" y1="3165.625" y2="3165.625"/><text fill="#000000" font-family="sans-serif" font-size="43.75" font-style="italic" lengthAdjust="spacingAndGlyphs" textLength="262.5" x="556.25" y="3232.9163">«executable»</text><text fill="#000000" font-family="sans-serif" font-size="43.75" lengthAdjust="spacingAndGlyphs" textLength="159.375" x="607.8125" y="3319.1956">comApp</text><path d="M314.0625,3946.875 L314.0625,4060.4736 L1092.1875,4060.4736 L1092.1875,3978.125 L1060.9375,3946.875 L314.0625,3946.875 " fill="#ECECEC" style="stroke: #383838; stroke-width: 3.125;"/><path d="M1060.9375,3946.875 L1060.9375,3978.125 L1092.1875,3978.125 L1060.9375,3946.875 " fill="#ECECEC" style="stroke: #383838; stroke-width: 3.125;"/><text fill="#000000" font-family="sans-serif" font-size="40.625" lengthAdjust="spacingAndGlyphs" textLength="681.25" x="348.4375" y="4020.2972">Access a HTTP server from a browser</text><!--link desktopApp to N2--><path d="M2253.125,3162.5949 C2253.125,3162.7365 2253.125,3162.8782 2253.125,3163.0198 C2253.125,3164.1529 2253.125,3165.2859 2253.125,3166.419 C2253.125,3175.4835 2253.125,3184.5479 2253.125,3193.6121 C2253.125,3211.7406 2253.125,3229.8688 2253.125,3247.9969 " fill="none" id="desktopApp-N2" style="stroke: #383838; stroke-width: 3.125; stroke-dasharray: 7.0,7.0;"/><!--link UserKit to PC--><path d="M735.0485,1846.9505 C735.4756,1847.3273 735.907,1847.7081 736.3428,1848.0928 C739.8285,1851.1707 743.588,1854.502 747.6059,1858.0773 C755.6415,1865.2278 764.7102,1873.3541 774.688,1882.3806 C814.5995,1918.4866 869.0576,1968.9959 930.1309,2029.0715 C1052.2773,2149.2227 1200.8844,2307.6391 1312.5,2465.625 C1571.1031,2831.6625 1629.3594,2938.1188 1773.4375,3362.5 C1793.4063,3421.3156 1751.8687,3458.8969 1798.4375,3500 C1872.6094,3565.4656 1983.1586,3572.5445 2076.3082,3562.8523 C2099.5956,3560.4293 2121.7955,3556.9581 2142.0677,3553.0889 C2147.1358,3552.1216 2152.0833,3551.1294 2156.8973,3550.1225 " fill="none" id="UserKit-PC" style="stroke: #383838; stroke-width: 3.125;"/><text fill="#000000" font-family="sans-serif" font-size="40.625" lengthAdjust="spacingAndGlyphs" textLength="187.5" x="1554.6875" y="2710.9222">«protocol»</text><text fill="#000000" font-family="sans-serif" font-size="40.625" lengthAdjust="spacingAndGlyphs" textLength="212.5" x="1542.1875" y="2762.0209">WebSocket</text><!--link TargetKit to PC--><path d="M1266.9092,3525 C1289.8464,3525 1313.0532,3525 1336.4397,3525 C1383.2126,3525 1430.7043,3525 1478.1957,3525 C1573.1784,3525 1668.1597,3525 1757.3864,3525 C1779.6931,3525 1801.6402,3525 1823.1376,3525 C1828.512,3525 1833.8583,3525 1839.1751,3525 C1841.8334,3525 1844.4845,3525 1847.1279,3525 " fill="none" id="TargetKit-PC" style="stroke: #383838; stroke-width: 3.125;"/><text fill="#000000" font-family="sans-serif" font-size="40.625" lengthAdjust="spacingAndGlyphs" textLength="187.5" x="1554.6875" y="3448.4222">«protocol»</text><text fill="#000000" font-family="sans-serif" font-size="40.625" lengthAdjust="spacingAndGlyphs" textLength="212.5" x="1542.1875" y="3499.5209">WebSocket</text><!--link scoreboard to PC--><path d="M1170.1466,4145.6023 C1172.2659,4145.2106 1174.3842,4144.8136 1176.5014,4144.4112 C1180.7359,4143.6064 1184.966,4142.7802 1189.1901,4141.932 C1197.6383,4140.2356 1206.0625,4138.4513 1214.4498,4136.5749 C1247.999,4129.0695 1280.9578,4120.0914 1312.5,4109.375 C1541.3109,4031.6359 1771.9938,3888.857 1947.277,3763.8941 C2034.9186,3701.4127 2108.7103,3643.3853 2161.4931,3600.1688 C2174.6888,3589.3647 2186.5715,3579.4863 2197.0292,3570.6953 C2202.2581,3566.2999 2207.1308,3562.1763 2211.6332,3558.3448 C2213.8844,3556.4291 2216.0431,3554.5864 2218.1075,3552.8192 C2219.1396,3551.9357 2220.1483,3551.071 2221.1331,3550.2255 " fill="none" id="scoreboard-PC" style="stroke: #383838; stroke-width: 3.125;"/><text fill="#000000" font-family="sans-serif" font-size="40.625" lengthAdjust="spacingAndGlyphs" textLength="187.5" x="1554.6875" y="3804.6722">«protocol»</text><text fill="#000000" font-family="sans-serif" font-size="40.625" lengthAdjust="spacingAndGlyphs" textLength="100" x="1598.4375" y="3855.7709">HTTP</text><!--link server to DB--><path d="M3437.0639,3300.0837 C3438.5686,3300.2529 3440.0779,3300.4227 3441.5917,3300.5929 C3447.6467,3301.274 3453.7728,3301.963 3459.9637,3302.6594 C3472.3454,3304.052 3484.986,3305.4738 3497.8336,3306.9189 C3549.2239,3312.6991 3603.9268,3318.852 3658.6289,3325.0047 C3713.3311,3331.1574 3768.0325,3337.3101 3819.4199,3343.0899 C3825.8433,3343.8124 3832.2149,3344.5291 3838.5283,3345.2392 C3839.3175,3345.3279 3840.1058,3345.4166 3840.8931,3345.5051 " fill="none" id="server-DB" style="stroke: #383838; stroke-width: 3.125;"/><!--link desktopApp to server--><path d="M2534.2831,3144.7887 C2534.8502,3144.8395 2535.417,3144.8905 2535.9837,3144.9419 C2538.2502,3145.1473 2540.5133,3145.3575 2542.7721,3145.5726 C2547.2899,3146.003 2551.7908,3146.453 2556.2688,3146.9235 C2565.2248,3147.8646 2574.0891,3148.8879 2582.8125,3150 C2718.2031,3167.2625 2748.9938,3188.7719 2882.8125,3215.625 C2891.5291,3217.374 2900.3816,3219.1289 2909.3216,3220.8826 C2913.7915,3221.7594 2918.2834,3222.6359 2922.7911,3223.5112 C2925.0449,3223.9489 2927.3027,3224.3862 2929.5637,3224.8231 C2930.1289,3224.9324 2930.6944,3225.0416 2931.26,3225.1508 " fill="none" id="desktopApp-server" style="stroke: #383838; stroke-width: 3.125;"/><text fill="#000000" font-family="sans-serif" font-size="40.625" lengthAdjust="spacingAndGlyphs" textLength="187.5" x="2639.0625" y="3079.6722">«protocol»</text><text fill="#000000" font-family="sans-serif" font-size="40.625" lengthAdjust="spacingAndGlyphs" textLength="212.5" x="2626.5625" y="3130.7709">WebSocket</text><!--
@startuml deployment_diagram

left to right direction

skinparam {
    monochrome true
    dpi 300
    padding 5
    packageStyle rectangle
    packageStyle frame
    shadowing false
}

frame "Deployment diagram" {

node "<b>PC" <<device>> as PC {
    node "<b>Desktop App" <<application>> as desktopApp {
        artifact "<b>frontend.exe" <<executable>> as frontend
    }
    note "This application serves\n as the admin interface" as N2
    N2 .left. desktopApp

    node "<b>Server" <<server>> as server {
        artifact "<b>backend.exe" <<executable>> as backend
    }

    database "<b>High score database\n- - - -" <<database>> as DB {
        entity "HighScore"
        entity "Users"
    }
}

node "<b>UserKit" <<device>> as UserKit {
    node "<b>UserKitController" <<device>> as userKitCtrl {
        artifact "userkitApp" <<executable>>
    }

    node "<b>UserKit Communication Unit" <<device>> as UsrComUnit {
        artifact "comApp" <<executable>> as usrComApp
    }
}

node "<b>TargetKit" <<device>> as TargetKit {
    node "<b>TargetKitController" <<device>> as targetKitCtrl {
        artifact "targetKitApp" <<executable>>
    }

    node "<b>TargetKit Communication Unit" <<device>> as TrgtComUnit {
        artifact "comApp" <<executable>> as trgtComApp
    }
}

node "<b>Scoreboard Display" <<device>> as scoreboard {
    note "Access a HTTP server from a browser" as N1
}

UserKit - - PC : <<protocol>>\nWebSocket
TargetKit - - PC : <<protocol>>\nWebSocket
scoreboard - - PC : <<protocol>>\nHTTP
server - - DB


desktopApp - - server : <<protocol>>\nWebSocket

}

@enduml

PlantUML version 1.2018.12(Sun Oct 21 12:15:15 CEST 2018)
(GPL source distribution)
Java Runtime: Java(TM) SE Runtime Environment
JVM: Java HotSpot(TM) Client VM
Java Version: 1.8.0_201-b09
Operating System: Windows 10
OS Version: 10.0
Default Encoding: Cp1252
Language: en
Country: US
--></g></svg>