<?xml version="1.0" encoding="UTF-8" standalone="no"?><svg xmlns="http://www.w3.org/2000/svg" xmlns:xlink="http://www.w3.org/1999/xlink" contentScriptType="application/ecmascript" contentStyleType="text/css" height="3434.375px" preserveAspectRatio="none" style="width:4450px;height:3434px;" version="1.1" viewBox="0 0 4450 3434" width="4450px" zoomAndPan="magnify"><defs/><g><!--cluster Deployment diagram--><rect fill="#FFFFFF" height="3325" style="stroke: #000000; stroke-width: 4.6875;" width="4346.875" x="68.75" y="75"/><path d="M578.125,78.125 L578.125,139.4043 L546.875,170.6543 L68.75,170.6543 " fill="none" style="stroke: #000000; stroke-width: 4.6875;"/><text fill="#000000" font-family="sans-serif" font-size="43.75" font-weight="bold" lengthAdjust="spacingAndGlyphs" textLength="446.875" x="93.75" y="139.1663">Deployment diagram</text><!--cluster PC--><polygon fill="#FFFFFF" points="1665.625,1262.5,1696.875,1231.25,4315.625,1231.25,4315.625,2625,4284.375,2656.25,1665.625,2656.25,1665.625,1262.5" style="stroke: #000000; stroke-width: 4.6875;"/><line style="stroke: #000000; stroke-width: 4.6875;" x1="4284.375" x2="4312.5" y1="1262.5" y2="1234.375"/><line style="stroke: #000000; stroke-width: 4.6875;" x1="1665.625" x2="4284.375" y1="1262.5" y2="1262.5"/><line style="stroke: #000000; stroke-width: 4.6875;" x1="4284.375" x2="4284.375" y1="1262.5" y2="2656.25"/><text fill="#000000" font-family="sans-serif" font-size="43.75" font-style="italic" lengthAdjust="spacingAndGlyphs" textLength="175" x="2890.625" y="1332.9163">«device»</text><text fill="#000000" font-family="sans-serif" font-size="43.75" font-weight="bold" lengthAdjust="spacingAndGlyphs" textLength="59.375" x="2948.4375" y="1419.1956">PC</text><!--cluster desktopApp--><polygon fill="#FFFFFF" points="2675,1684.375,2706.25,1653.125,3234.375,1653.125,3234.375,2271.875,3203.125,2303.125,2675,2303.125,2675,1684.375" style="stroke: #000000; stroke-width: 4.6875;"/><line style="stroke: #000000; stroke-width: 4.6875;" x1="3203.125" x2="3231.25" y1="1684.375" y2="1656.25"/><line style="stroke: #000000; stroke-width: 4.6875;" x1="2675" x2="3203.125" y1="1684.375" y2="1684.375"/><line style="stroke: #000000; stroke-width: 4.6875;" x1="3203.125" x2="3203.125" y1="1684.375" y2="2303.125"/><text fill="#000000" font-family="sans-serif" font-size="43.75" font-style="italic" lengthAdjust="spacingAndGlyphs" textLength="262.5" x="2810.9375" y="1754.7913">«application»</text><text fill="#000000" font-family="sans-serif" font-size="43.75" font-weight="bold" lengthAdjust="spacingAndGlyphs" textLength="278.125" x="2803.125" y="1841.0706">Desktop App</text><!--cluster server--><polygon fill="#FFFFFF" points="3634.375,1684.375,3665.625,1653.125,4190.625,1653.125,4190.625,2271.875,4159.375,2303.125,3634.375,2303.125,3634.375,1684.375" style="stroke: #000000; stroke-width: 4.6875;"/><line style="stroke: #000000; stroke-width: 4.6875;" x1="4159.375" x2="4187.5" y1="1684.375" y2="1656.25"/><line style="stroke: #000000; stroke-width: 4.6875;" x1="3634.375" x2="4159.375" y1="1684.375" y2="1684.375"/><line style="stroke: #000000; stroke-width: 4.6875;" x1="4159.375" x2="4159.375" y1="1684.375" y2="2303.125"/><text fill="#000000" font-family="sans-serif" font-size="43.75" font-style="italic" lengthAdjust="spacingAndGlyphs" textLength="171.875" x="3814.0625" y="1754.7913">«server»</text><text fill="#000000" font-family="sans-serif" font-size="43.75" font-weight="bold" lengthAdjust="spacingAndGlyphs" textLength="150" x="3825" y="1841.0706">Server</text><!--cluster DB--><path d="M1790.625,1584.375 C1790.625,1553.125 2056.25,1553.125 2056.25,1553.125 C2056.25,1553.125 2321.875,1553.125 2321.875,1584.375 L2321.875,2475 C2321.875,2506.25 2056.25,2506.25 2056.25,2506.25 C2056.25,2506.25 1790.625,2506.25 1790.625,2475 L1790.625,1584.375 " fill="#FFFFFF" style="stroke: #000000; stroke-width: 4.6875;"/><path d="M1790.625,1584.375 C1790.625,1615.625 2056.25,1615.625 2056.25,1615.625 C2056.25,1615.625 2321.875,1615.625 2321.875,1584.375 " fill="none" style="stroke: #000000; stroke-width: 4.6875;"/><text fill="#000000" font-family="sans-serif" font-size="43.75" font-style="italic" lengthAdjust="spacingAndGlyphs" textLength="234.375" x="1939.0625" y="1682.9163">«database»</text><text fill="#000000" font-family="sans-serif" font-size="43.75" font-weight="bold" lengthAdjust="spacingAndGlyphs" textLength="450" x="1831.25" y="1769.1956">High score database</text><line style="stroke: #000000; stroke-width: 3.125;" x1="1815.625" x2="2296.875" y1="1794.4336" y2="1794.4336"/><!--cluster UserKit--><polygon fill="#FFFFFF" points="207.8125,300,239.0625,268.75,1060.9375,268.75,1060.9375,1537.5,1029.6875,1568.75,207.8125,1568.75,207.8125,300" style="stroke: #000000; stroke-width: 4.6875;"/><line style="stroke: #000000; stroke-width: 4.6875;" x1="1029.6875" x2="1057.8125" y1="300" y2="271.875"/><line style="stroke: #000000; stroke-width: 4.6875;" x1="207.8125" x2="1029.6875" y1="300" y2="300"/><line style="stroke: #000000; stroke-width: 4.6875;" x1="1029.6875" x2="1029.6875" y1="300" y2="1568.75"/><text fill="#000000" font-family="sans-serif" font-size="43.75" font-style="italic" lengthAdjust="spacingAndGlyphs" textLength="175" x="534.375" y="370.4163">«device»</text><text fill="#000000" font-family="sans-serif" font-size="43.75" font-weight="bold" lengthAdjust="spacingAndGlyphs" textLength="162.5" x="540.625" y="456.6956">UserKit</text><!--cluster userKitCtrl--><polygon fill="#FFFFFF" points="307.8125,596.875,339.0625,565.625,960.9375,565.625,960.9375,1075,929.6875,1106.25,307.8125,1106.25,307.8125,596.875" style="stroke: #000000; stroke-width: 4.6875;"/><line style="stroke: #000000; stroke-width: 4.6875;" x1="929.6875" x2="957.8125" y1="596.875" y2="568.75"/><line style="stroke: #000000; stroke-width: 4.6875;" x1="307.8125" x2="929.6875" y1="596.875" y2="596.875"/><line style="stroke: #000000; stroke-width: 4.6875;" x1="929.6875" x2="929.6875" y1="596.875" y2="1106.25"/><text fill="#000000" font-family="sans-serif" font-size="43.75" font-style="italic" lengthAdjust="spacingAndGlyphs" textLength="175" x="534.375" y="667.2913">«device»</text><text fill="#000000" font-family="sans-serif" font-size="43.75" font-weight="bold" lengthAdjust="spacingAndGlyphs" textLength="384.375" x="429.6875" y="753.5706">UserKitController</text><!--cluster TargetKit--><polygon fill="#FFFFFF" points="189.0625,1725,220.3125,1693.75,1079.6875,1693.75,1079.6875,2625,1048.4375,2656.25,189.0625,2656.25,189.0625,1725" style="stroke: #000000; stroke-width: 4.6875;"/><line style="stroke: #000000; stroke-width: 4.6875;" x1="1048.4375" x2="1076.5625" y1="1725" y2="1696.875"/><line style="stroke: #000000; stroke-width: 4.6875;" x1="189.0625" x2="1048.4375" y1="1725" y2="1725"/><line style="stroke: #000000; stroke-width: 4.6875;" x1="1048.4375" x2="1048.4375" y1="1725" y2="2656.25"/><text fill="#000000" font-family="sans-serif" font-size="43.75" font-style="italic" lengthAdjust="spacingAndGlyphs" textLength="175" x="534.375" y="1795.4163">«device»</text><text fill="#000000" font-family="sans-serif" font-size="43.75" font-weight="bold" lengthAdjust="spacingAndGlyphs" textLength="200" x="521.875" y="1881.6956">TargetKit</text><!--cluster targetKitCtrl--><polygon fill="#FFFFFF" points="289.0625,2021.875,320.3125,1990.625,979.6875,1990.625,979.6875,2500,948.4375,2531.25,289.0625,2531.25,289.0625,2021.875" style="stroke: #000000; stroke-width: 4.6875;"/><line style="stroke: #000000; stroke-width: 4.6875;" x1="948.4375" x2="976.5625" y1="2021.875" y2="1993.75"/><line style="stroke: #000000; stroke-width: 4.6875;" x1="289.0625" x2="948.4375" y1="2021.875" y2="2021.875"/><line style="stroke: #000000; stroke-width: 4.6875;" x1="948.4375" x2="948.4375" y1="2021.875" y2="2531.25"/><text fill="#000000" font-family="sans-serif" font-size="43.75" font-style="italic" lengthAdjust="spacingAndGlyphs" textLength="175" x="534.375" y="2092.2913">«device»</text><text fill="#000000" font-family="sans-serif" font-size="43.75" font-weight="bold" lengthAdjust="spacingAndGlyphs" textLength="421.875" x="410.9375" y="2178.5706">TargetKitController</text><!--cluster scoreboard--><polygon fill="#FFFFFF" points="168.75,2812.5,200,2781.25,1096.875,2781.25,1096.875,3268.75,1065.625,3300,168.75,3300,168.75,2812.5" style="stroke: #000000; stroke-width: 4.6875;"/><line style="stroke: #000000; stroke-width: 4.6875;" x1="1065.625" x2="1093.75" y1="2812.5" y2="2784.375"/><line style="stroke: #000000; stroke-width: 4.6875;" x1="168.75" x2="1065.625" y1="2812.5" y2="2812.5"/><line style="stroke: #000000; stroke-width: 4.6875;" x1="1065.625" x2="1065.625" y1="2812.5" y2="3300"/><text fill="#000000" font-family="sans-serif" font-size="43.75" font-style="italic" lengthAdjust="spacingAndGlyphs" textLength="175" x="532.8125" y="2882.9163">«device»</text><text fill="#000000" font-family="sans-serif" font-size="43.75" font-weight="bold" lengthAdjust="spacingAndGlyphs" textLength="425" x="407.8125" y="2969.1956">Scoreboard Display</text><path d="M2700,2389.0625 L2700,2553.7598 L3209.375,2553.7598 L3209.375,2420.3125 L3178.125,2389.0625 L2700,2389.0625 " fill="#ECECEC" style="stroke: #383838; stroke-width: 3.125;"/><path d="M3178.125,2389.0625 L3178.125,2420.3125 L3209.375,2420.3125 L3178.125,2389.0625 " fill="#ECECEC" style="stroke: #383838; stroke-width: 3.125;"/><text fill="#000000" font-family="sans-serif" font-size="40.625" lengthAdjust="spacingAndGlyphs" textLength="409.375" x="2734.375" y="2462.4847">This application serves</text><text fill="#000000" font-family="sans-serif" font-size="40.625" lengthAdjust="spacingAndGlyphs" textLength="400" x="2746.875" y="2513.5834">as the admin interface</text><!--entity frontend--><rect fill="#F8F8F8" height="244.4336" style="stroke: #000000; stroke-width: 4.6875;" width="409.375" x="2750" y="1925"/><polygon fill="#F8F8F8" points="3106.25,1940.625,3106.25,1984.375,3143.75,1984.375,3143.75,1959.375,3125,1940.625,3106.25,1940.625" style="stroke: #000000; stroke-width: 4.6875;"/><line style="stroke: #000000; stroke-width: 4.6875;" x1="3125" x2="3125" y1="1940.625" y2="1959.375"/><line style="stroke: #000000; stroke-width: 4.6875;" x1="3143.75" x2="3125" y1="1959.375" y2="1959.375"/><text fill="#000000" font-family="sans-serif" font-size="43.75" font-style="italic" lengthAdjust="spacingAndGlyphs" textLength="262.5" x="2807.8125" y="2026.6663">«executable»</text><text fill="#000000" font-family="sans-serif" font-size="43.75" font-weight="bold" lengthAdjust="spacingAndGlyphs" textLength="284.375" x="2796.875" y="2112.9456">frontend.exe</text><!--entity backend--><rect fill="#F8F8F8" height="244.4336" style="stroke: #000000; stroke-width: 4.6875;" width="406.25" x="3709.375" y="1925"/><polygon fill="#F8F8F8" points="4062.5,1940.625,4062.5,1984.375,4100,1984.375,4100,1959.375,4081.25,1940.625,4062.5,1940.625" style="stroke: #000000; stroke-width: 4.6875;"/><line style="stroke: #000000; stroke-width: 4.6875;" x1="4081.25" x2="4081.25" y1="1940.625" y2="1959.375"/><line style="stroke: #000000; stroke-width: 4.6875;" x1="4100" x2="4081.25" y1="1959.375" y2="1959.375"/><text fill="#000000" font-family="sans-serif" font-size="43.75" font-style="italic" lengthAdjust="spacingAndGlyphs" textLength="262.5" x="3765.625" y="2026.6663">«executable»</text><text fill="#000000" font-family="sans-serif" font-size="43.75" font-weight="bold" lengthAdjust="spacingAndGlyphs" textLength="281.25" x="3756.25" y="2112.9456">backend.exe</text><!--entity HighScore--><ellipse cx="2054.6875" cy="1937.5" fill="#F8F8F8" rx="37.5" ry="37.5" style="stroke: #383838; stroke-width: 6.25;"/><line style="stroke: #383838; stroke-width: 6.25;" x1="2017.1875" x2="2092.1875" y1="1981.25" y2="1981.25"/><text fill="#000000" font-family="sans-serif" font-size="43.75" lengthAdjust="spacingAndGlyphs" textLength="203.125" x="1953.125" y="2048.5413">HighScore</text><!--entity Users--><ellipse cx="2054.6875" cy="2234.375" fill="#F8F8F8" rx="37.5" ry="37.5" style="stroke: #383838; stroke-width: 6.25;"/><line style="stroke: #383838; stroke-width: 6.25;" x1="2017.1875" x2="2092.1875" y1="2278.125" y2="2278.125"/><text fill="#000000" font-family="sans-serif" font-size="43.75" lengthAdjust="spacingAndGlyphs" textLength="112.5" x="1998.4375" y="2345.4163">Users</text><!--entity comUnit--><polygon fill="#F8F8F8" points="392.1875,1198.4375,423.4375,1167.1875,873.4375,1167.1875,873.4375,1402.2461,842.1875,1433.4961,392.1875,1433.4961,392.1875,1198.4375" style="stroke: #000000; stroke-width: 4.6875;"/><line style="stroke: #000000; stroke-width: 4.6875;" x1="842.1875" x2="870.3125" y1="1198.4375" y2="1170.3125"/><line style="stroke: #000000; stroke-width: 4.6875;" x1="392.1875" x2="842.1875" y1="1198.4375" y2="1198.4375"/><line style="stroke: #000000; stroke-width: 4.6875;" x1="842.1875" x2="842.1875" y1="1198.4375" y2="1433.4961"/><text fill="#000000" font-family="sans-serif" font-size="43.75" font-style="italic" lengthAdjust="spacingAndGlyphs" textLength="175" x="529.6875" y="1290.7288">«device»</text><text fill="#000000" font-family="sans-serif" font-size="43.75" font-weight="bold" lengthAdjust="spacingAndGlyphs" textLength="325" x="454.6875" y="1377.0081">TargetComUnit</text><!--entity userkitApp--><rect fill="#F8F8F8" height="244.4336" style="stroke: #000000; stroke-width: 4.6875;" width="387.5" x="439.0625" y="812.5"/><polygon fill="#F8F8F8" points="773.4375,828.125,773.4375,871.875,810.9375,871.875,810.9375,846.875,792.1875,828.125,773.4375,828.125" style="stroke: #000000; stroke-width: 4.6875;"/><line style="stroke: #000000; stroke-width: 4.6875;" x1="792.1875" x2="792.1875" y1="828.125" y2="846.875"/><line style="stroke: #000000; stroke-width: 4.6875;" x1="810.9375" x2="792.1875" y1="846.875" y2="846.875"/><text fill="#000000" font-family="sans-serif" font-size="43.75" font-style="italic" lengthAdjust="spacingAndGlyphs" textLength="262.5" x="485.9375" y="914.1663">«executable»</text><text fill="#000000" font-family="sans-serif" font-size="43.75" lengthAdjust="spacingAndGlyphs" textLength="209.375" x="512.5" y="1000.4456">userkitApp</text><!--entity targetKitApp--><rect fill="#F8F8F8" height="244.4336" style="stroke: #000000; stroke-width: 4.6875;" width="387.5" x="439.0625" y="2237.5"/><polygon fill="#F8F8F8" points="773.4375,2253.125,773.4375,2296.875,810.9375,2296.875,810.9375,2271.875,792.1875,2253.125,773.4375,2253.125" style="stroke: #000000; stroke-width: 4.6875;"/><line style="stroke: #000000; stroke-width: 4.6875;" x1="792.1875" x2="792.1875" y1="2253.125" y2="2271.875"/><line style="stroke: #000000; stroke-width: 4.6875;" x1="810.9375" x2="792.1875" y1="2271.875" y2="2271.875"/><text fill="#000000" font-family="sans-serif" font-size="43.75" font-style="italic" lengthAdjust="spacingAndGlyphs" textLength="262.5" x="485.9375" y="2339.1663">«executable»</text><text fill="#000000" font-family="sans-serif" font-size="43.75" lengthAdjust="spacingAndGlyphs" textLength="243.75" x="495.3125" y="2425.4456">targetKitApp</text><path d="M243.75,3053.125 L243.75,3166.7236 L1021.875,3166.7236 L1021.875,3084.375 L990.625,3053.125 L243.75,3053.125 " fill="#ECECEC" style="stroke: #383838; stroke-width: 3.125;"/><path d="M990.625,3053.125 L990.625,3084.375 L1021.875,3084.375 L990.625,3053.125 " fill="#ECECEC" style="stroke: #383838; stroke-width: 3.125;"/><text fill="#000000" font-family="sans-serif" font-size="40.625" lengthAdjust="spacingAndGlyphs" textLength="681.25" x="278.125" y="3126.5472">Access a HTTP server from a browser</text><!--link desktopApp to N2--><path d="M2954.6875,2303.2199 C2954.6875,2303.3615 2954.6875,2303.5032 2954.6875,2303.6448 C2954.6875,2304.7779 2954.6875,2305.9109 2954.6875,2307.044 C2954.6875,2316.1085 2954.6875,2325.1729 2954.6875,2334.2371 C2954.6875,2352.3656 2954.6875,2370.4938 2954.6875,2388.6219 " fill="none" id="desktopApp-N2" style="stroke: #383838; stroke-width: 3.125; stroke-dasharray: 7.0,7.0;"/><!--link DB to N2--><!--link UserKit to PC--><path d="M657.9538,1569.5389 C658.4809,1570.1537 659.0168,1570.7787 659.5615,1571.4137 C660.6508,1572.6838 661.7753,1573.9943 662.9345,1575.3445 C665.2527,1578.0447 667.7093,1580.9036 670.3,1583.9154 C691.026,1608.01 720.3359,1641.8924 756.038,1682.6546 C827.4422,1764.1789 924.4152,1873.2223 1029.4234,1986.5203 C1239.4398,2213.1164 1481.5969,2456.7313 1615.625,2531.25 C1626.3139,2537.1928 1637.3376,2542.7828 1648.6145,2548.0411 C1651.4337,2549.3556 1654.2688,2550.6494 1657.1184,2551.9228 C1658.5432,2552.5596 1659.9716,2553.1912 1661.4035,2553.8177 C1662.1195,2554.131 1662.8363,2554.443 1663.554,2554.7537 " fill="none" id="UserKit-PC" style="stroke: #383838; stroke-width: 3.125;"/><text fill="#000000" font-family="sans-serif" font-size="40.625" lengthAdjust="spacingAndGlyphs" textLength="187.5" x="1296.875" y="2176.5472">«protocol»</text><text fill="#000000" font-family="sans-serif" font-size="40.625" lengthAdjust="spacingAndGlyphs" textLength="212.5" x="1284.375" y="2227.6459">WebSocket</text><!--link TargetKit to PC--><path d="M1080.1328,2631.25 C1082.6794,2631.25 1085.2313,2631.25 1087.7884,2631.25 C1169.6149,2631.25 1256.7157,2631.25 1343.8152,2631.25 C1430.9147,2631.25 1518.013,2631.25 1599.8343,2631.25 C1620.2896,2631.25 1640.4152,2631.25 1660.1284,2631.25 C1661.3605,2631.25 1662.591,2631.25 1663.8198,2631.25 " fill="none" id="TargetKit-PC" style="stroke: #383838; stroke-width: 3.125;"/><text fill="#000000" font-family="sans-serif" font-size="40.625" lengthAdjust="spacingAndGlyphs" textLength="187.5" x="1296.875" y="2554.6722">«protocol»</text><text fill="#000000" font-family="sans-serif" font-size="40.625" lengthAdjust="spacingAndGlyphs" textLength="212.5" x="1284.375" y="2605.7709">WebSocket</text><!--link scoreboard to PC--><path d="M1098.5705,3231.0735 C1099.4355,3230.8277 1100.2996,3230.5805 1101.163,3230.3321 C1102.8896,3229.8352 1104.6131,3229.3332 1106.3332,3228.826 C1120.0938,3224.768 1133.6369,3220.3765 1146.875,3215.625 C1368.6203,3136.0359 1591.2445,2993.2281 1760.1648,2868.7129 C1844.625,2806.4553 1915.6592,2748.7708 1966.4445,2705.8484 C1979.1409,2695.1178 1990.5717,2685.3098 2000.6303,2676.5837 C2005.6596,2672.2206 2010.3459,2668.128 2014.6758,2664.3257 C2016.8407,2662.4246 2018.9166,2660.5961 2020.9017,2658.8426 C2021.8943,2657.9659 2022.8641,2657.1079 2023.8111,2656.269 " fill="none" id="scoreboard-PC" style="stroke: #383838; stroke-width: 3.125;"/><text fill="#000000" font-family="sans-serif" font-size="40.625" lengthAdjust="spacingAndGlyphs" textLength="187.5" x="1296.875" y="2970.2972">«protocol»</text><text fill="#000000" font-family="sans-serif" font-size="40.625" lengthAdjust="spacingAndGlyphs" textLength="100" x="1340.625" y="3021.3959">HTTP</text><!--link desktopApp to server--><path d="M3236.028,2278.125 C3237.7095,2278.125 3239.395,2278.125 3241.0844,2278.125 C3247.842,2278.125 3254.6619,2278.125 3261.5372,2278.125 C3316.5396,2278.125 3375.0873,2278.125 3433.6344,2278.125 C3492.1814,2278.125 3550.7278,2278.125 3605.7275,2278.125 C3612.6024,2278.125 3619.422,2278.125 3626.1792,2278.125 C3627.8685,2278.125 3629.5539,2278.125 3631.2353,2278.125 C3632.076,2278.125 3632.9157,2278.125 3633.7543,2278.125 " fill="none" id="desktopApp-server" style="stroke: #383838; stroke-width: 3.125;"/><text fill="#000000" font-family="sans-serif" font-size="40.625" lengthAdjust="spacingAndGlyphs" textLength="187.5" x="3340.625" y="2201.5472">«protocol»</text><text fill="#000000" font-family="sans-serif" font-size="40.625" lengthAdjust="spacingAndGlyphs" textLength="212.5" x="3328.125" y="2252.6459">WebSocket</text><!--
@startuml deployment_diagram

left to right direction

skinparam {
    monochrome true
    dpi 300
    padding 5
    packageStyle rectangle
    packageStyle frame
    shadowing false
}

frame "Deployment diagram" {

node "<b>PC" <<device>> as PC {
    node "<b>Desktop App" <<application>> as desktopApp {
        artifact "<b>frontend.exe" <<executable>> as frontend
    }
    note "This application serves\n as the admin interface" as N2
    N2 .left. desktopApp

    DB -[hidden]-> N2

    node "<b>Server" <<server>> as server {
        artifact "<b>backend.exe" <<executable>> as backend
    }

    database "<b>High score database\n- - - -" <<database>> as DB {
        entity "HighScore"
        entity "Users"
    }
}

node "<b>UserKit" <<device>> as UserKit {
    node "<b>UserKitController" <<device>> as userKitCtrl {
        artifact "userkitApp" <<executable>>
    }

    node "<b>Communication unit" <<device>> as comUnit
}

node "<b>TargetKit" <<device>> as TargetKit {
    node "<b>TargetKitController" <<device>> as targetKitCtrl {
        artifact "targetKitApp" <<executable>>
    }

    node "<b>TargetComUnit" <<device>> as comUnit
}

node "<b>Scoreboard Display" <<device>> as scoreboard {
    note "Access a HTTP server from a browser" as N1
}

UserKit - - PC : <<protocol>>\nWebSocket
TargetKit - - PC : <<protocol>>\nWebSocket
scoreboard - - PC : <<protocol>>\nHTTP


desktopApp - - server : <<protocol>>\nWebSocket

}

@enduml

PlantUML version 1.2018.12(Sun Oct 21 12:15:15 CEST 2018)
(GPL source distribution)
Java Runtime: Java(TM) SE Runtime Environment
JVM: Java HotSpot(TM) Client VM
Java Version: 1.8.0_201-b09
Operating System: Windows 10
OS Version: 10.0
Default Encoding: Cp1252
Language: en
Country: US
--></g></svg>